# xmcd
# 
# Track frame offsets:
#     150
#     21937
#     39428
#     55702
#     74314
#     96260
#     114630
#     128086
#     144160
#     159252
#     177313
#     194096
#     216097
# 
# Disc length: 3175
# 
# Revision: 0
# Processed by: cddbd v1.5.2PL0 Copyright (c) Steve Scherf et al.
# Submitted via: fre:ac v1.1beta1pre5
# 
DISCID=b50c650d
DTITLE=Various Artist - Dés László - "ennyi a dal"
DYEAR=2000
DGENRE=POP - Rock
TTITLE0=Jazz+Az - Megint hétfő [Geszti]
TTITLE1=Somló Tamás - Olyan szépek voltunk [Nemes]
TTITLE2=Demjén Ferenc - Szerelem első vérig [Demjén]
TTITLE3=Jazz+Az - Csepp a tengerben [Geszti]
TTITLE4=Kulka János - Ez a hely [Nemes]
TTITLE5=Udvaros Dorottya - Hóesés [Bereményi]
TTITLE6=Dés László - Vigyázz rám [Nemes]
TTITLE7=Szulák Andrea - C'est la vie [Geszti]
TTITLE8=Charlie and Gerendás Péter - Amig őriz a szemed [Geszti]
TTITLE9=Presser Gábor - Nagy utazás [Bereményi]
TTITLE10=Kulka János and Tunyogi Bernadett - A zene [Nemes]
TTITLE11=Básti Juli and Cserhalmi György - Hallgass kicsit [Bereményi]
TTITLE12=Dés László - Akarsz-e? [Geszti]
EXTD=
EXTT0=
EXTT1=
EXTT2=
EXTT3=
EXTT4=
EXTT5=
EXTT6=
EXTT7=
EXTT8=
EXTT9=
EXTT10=
EXTT11=
EXTT12=
PLAYORDER=
